<svg width="47" height="60" fill="none" xmlns="http://www.w3.org/2000/svg">
  <path fill="#fff" d="M0 30.86v-1.72L18.55 0l4.32 2.1c.7.35 1.21.8 1.56 1.35.35.55.52 1.14.52 1.8 0 .84-.25 1.67-.74 2.47L12.36 27.27a12.1 12.1 0 0 1-2.08 2.77c.74.7 1.44 1.6 2.08 2.7l11.85 19.54c.25.4.42.83.52 1.28.15.45.22.87.22 1.27 0 1.4-.7 2.42-2.08 3.07L18.55 60 0 30.86Zm22.05 0v-1.72L40.59 0l4.32 2.1c.7.35 1.22.8 1.57 1.35.35.55.52 1.14.52 1.8 0 .84-.25 1.67-.74 2.47L34.4 27.27a12.1 12.1 0 0 1-2.08 2.77c.74.7 1.44 1.6 2.08 2.7l11.85 19.54c.24.4.42.83.52 1.28.15.45.22.87.22 1.27 0 1.4-.7 2.42-2.09 3.07L40.6 60 22.05 30.86Z"/>
</svg>
